<?xml version="1.0" encoding="utf-8"?>
<!-- Generator: Adobe Illustrator 18.1.1, SVG Export Plug-In . SVG Version: 6.00 Build 0)  -->
<svg version="1.1" id="Layer_1" xmlns="http://www.w3.org/2000/svg" xmlns:xlink="http://www.w3.org/1999/xlink" x="0px" y="0px"
	 viewBox="0 0 203 81" enable-background="new 0 0 203 81" xml:space="preserve">
<polygon points="78.1,71.6 24.5,71.6 10.1,62 10.1,10.2 63.7,10.2 78.1,19.6 "/>
<polygon fill="#FFFFFF" points="24.7,51.8 29.5,51.8 29.5,44.8 32.2,42 38.8,51.8 44.8,51.8 35.4,38.6 44,30 38,30 29.5,39 29.5,30 
	24.7,30 "/>
<polygon fill="#FFFFFF" points="52.3,51.8 57.1,51.8 57.1,34 63.7,34 63.7,30 45.8,30 45.8,34 52.3,34 "/>
<polygon points="94.4,30 94.4,34.1 98.5,30 99.9,30 96.5,33.3 100.1,38.1 98.7,38.1 95.8,34 94.4,35.3 94.4,38.1 93.3,38.1 93.3,30 
	"/>
<polygon points="118.2,38.1 117,33.5 116.9,33.5 115.8,38.1 114.7,38.1 112.8,32.3 113.9,32.3 115.2,37.1 115.2,37.1 116.4,32.3 
	117.5,32.3 118.7,37.1 118.7,37.1 120.1,32.3 121.1,32.3 119.2,38.1 "/>
<rect x="121.9" y="30" width="1" height="8.1"/>
<polygon points="92.5,44.7 92.5,43.8 98.9,43.8 98.9,44.7 96.2,44.7 96.2,51.9 95.2,51.9 95.2,44.7 "/>
<rect x="120.5" y="43.8" width="1" height="8.1"/>
<path d="M132.5,51.9h1V46h-1V51.9z M132.5,45h1v-1.2h-1V45z"/>
<g>
	<path d="M135.6,49.9c0.1,0.3,0.2,0.5,0.4,0.7c0.2,0.2,0.4,0.3,0.6,0.4c0.2,0.1,0.5,0.1,0.7,0.1c0.3,0,0.5-0.1,0.7-0.1
		c0.2-0.1,0.4-0.2,0.6-0.4c0.2-0.2,0.3-0.4,0.4-0.7c0.1-0.3,0.1-0.6,0.1-1c0-0.4,0-0.7-0.1-0.9c-0.1-0.3-0.2-0.5-0.4-0.7
		c-0.2-0.2-0.4-0.3-0.6-0.4c-0.2-0.1-0.5-0.1-0.7-0.1c-0.2,0-0.5,0-0.7,0.1c-0.2,0.1-0.4,0.2-0.6,0.4c-0.2,0.2-0.3,0.4-0.4,0.7
		c-0.1,0.3-0.1,0.6-0.1,0.9C135.5,49.3,135.5,49.7,135.6,49.9 M134.6,47.8c0.1-0.4,0.3-0.7,0.5-1c0.2-0.3,0.5-0.5,0.9-0.7
		c0.4-0.2,0.8-0.2,1.2-0.2c0.5,0,0.9,0.1,1.2,0.2c0.4,0.2,0.7,0.4,0.9,0.7c0.2,0.3,0.4,0.6,0.5,1c0.1,0.4,0.2,0.8,0.2,1.2
		c0,0.4-0.1,0.8-0.2,1.2c-0.1,0.4-0.3,0.7-0.5,1c-0.2,0.3-0.5,0.5-0.9,0.6c-0.4,0.2-0.8,0.2-1.2,0.2c-0.5,0-0.9-0.1-1.2-0.2
		c-0.4-0.2-0.7-0.4-0.9-0.6s-0.4-0.6-0.5-1c-0.1-0.4-0.2-0.8-0.2-1.2C134.4,48.6,134.5,48.1,134.6,47.8"/>
	<path d="M142.1,46V47h0c0.4-0.7,1-1.1,1.9-1.1c0.4,0,0.7,0.1,1,0.2c0.3,0.1,0.5,0.3,0.6,0.4c0.2,0.2,0.3,0.4,0.3,0.7
		c0.1,0.3,0.1,0.6,0.1,0.9v3.9h-1v-4c0-0.4-0.1-0.7-0.3-0.9c-0.2-0.2-0.5-0.3-0.9-0.3c-0.3,0-0.6,0-0.8,0.1
		c-0.2,0.1-0.4,0.2-0.5,0.4c-0.1,0.2-0.3,0.4-0.3,0.6c-0.1,0.2-0.1,0.5-0.1,0.7v3.3h-1V46H142.1z"/>
	<path d="M154,47.7c0.6,0,1.1-0.1,1.3-0.4s0.4-0.6,0.4-1.1c0-0.5-0.1-0.9-0.4-1.1c-0.3-0.3-0.7-0.4-1.3-0.4h-2.1v3H154z M154.4,43.8
		c0.8,0,1.4,0.2,1.9,0.6c0.4,0.4,0.6,1,0.6,1.8c0,0.8-0.2,1.3-0.6,1.8c-0.4,0.4-1,0.6-1.9,0.6h-2.5v3.3h-1.1v-8.1H154.4z"/>
	<path d="M158.7,46v1.2h0c0.2-0.5,0.5-0.8,0.9-1.1c0.3-0.2,0.8-0.3,1.3-0.3v1c-0.4,0-0.7,0.1-1,0.2c-0.3,0.1-0.5,0.3-0.7,0.5
		c-0.2,0.2-0.3,0.5-0.4,0.7c-0.1,0.3-0.1,0.6-0.1,1v2.6h-1V46H158.7z"/>
	<path d="M162.4,49.9c0.1,0.3,0.2,0.5,0.4,0.7c0.2,0.2,0.4,0.3,0.6,0.4c0.2,0.1,0.5,0.1,0.7,0.1c0.3,0,0.5-0.1,0.7-0.1
		c0.2-0.1,0.4-0.2,0.6-0.4c0.2-0.2,0.3-0.4,0.4-0.7c0.1-0.3,0.1-0.6,0.1-1c0-0.4,0-0.7-0.1-0.9c-0.1-0.3-0.2-0.5-0.4-0.7
		c-0.2-0.2-0.4-0.3-0.6-0.4c-0.2-0.1-0.5-0.1-0.7-0.1c-0.2,0-0.5,0-0.7,0.1c-0.2,0.1-0.4,0.2-0.6,0.4c-0.2,0.2-0.3,0.4-0.4,0.7
		c-0.1,0.3-0.1,0.6-0.1,0.9C162.3,49.3,162.4,49.7,162.4,49.9 M161.5,47.8c0.1-0.4,0.3-0.7,0.5-1c0.2-0.3,0.5-0.5,0.9-0.7
		c0.4-0.2,0.8-0.2,1.2-0.2c0.5,0,0.9,0.1,1.2,0.2c0.4,0.2,0.7,0.4,0.9,0.7c0.2,0.3,0.4,0.6,0.5,1c0.1,0.4,0.2,0.8,0.2,1.2
		c0,0.4-0.1,0.8-0.2,1.2c-0.1,0.4-0.3,0.7-0.5,1c-0.2,0.3-0.5,0.5-0.9,0.6c-0.4,0.2-0.8,0.2-1.2,0.2c-0.5,0-0.9-0.1-1.2-0.2
		c-0.4-0.2-0.7-0.4-0.9-0.6s-0.4-0.6-0.5-1c-0.1-0.4-0.2-0.8-0.2-1.2C161.3,48.6,161.3,48.1,161.5,47.8"/>
	<path d="M171.3,50.9c0.2-0.1,0.4-0.3,0.5-0.5c0.1-0.2,0.2-0.5,0.3-0.7c0.1-0.3,0.1-0.5,0.1-0.8c0-0.3,0-0.5-0.1-0.8
		c-0.1-0.3-0.2-0.5-0.3-0.7c-0.1-0.2-0.3-0.4-0.5-0.5c-0.2-0.1-0.5-0.2-0.8-0.2c-0.3,0-0.6,0.1-0.8,0.2c-0.2,0.1-0.4,0.3-0.5,0.5
		c-0.1,0.2-0.2,0.4-0.3,0.7c-0.1,0.3-0.1,0.5-0.1,0.8c0,0.3,0,0.5,0.1,0.8c0.1,0.3,0.1,0.5,0.3,0.7c0.1,0.2,0.3,0.4,0.5,0.5
		c0.2,0.1,0.5,0.2,0.8,0.2C170.8,51.1,171.1,51.1,171.3,50.9 M172.5,53.6c-0.4,0.5-1.1,0.7-2.1,0.7c-0.3,0-0.6,0-0.8-0.1
		c-0.3-0.1-0.5-0.2-0.8-0.3s-0.4-0.3-0.6-0.5c-0.2-0.2-0.2-0.5-0.3-0.8h1c0,0.2,0.1,0.3,0.2,0.4c0.1,0.1,0.2,0.2,0.4,0.3
		c0.1,0.1,0.3,0.1,0.5,0.2c0.2,0,0.3,0.1,0.5,0.1c0.3,0,0.6-0.1,0.8-0.2c0.2-0.1,0.4-0.3,0.5-0.5s0.2-0.4,0.3-0.7
		c0.1-0.3,0.1-0.6,0.1-0.9v-0.4h0c-0.2,0.4-0.4,0.6-0.8,0.8c-0.3,0.2-0.7,0.3-1.1,0.3c-0.4,0-0.8-0.1-1.1-0.2
		c-0.3-0.2-0.6-0.4-0.8-0.6c-0.2-0.3-0.4-0.6-0.5-0.9c-0.1-0.4-0.2-0.7-0.2-1.1c0-0.3,0-0.7,0.1-1.1c0.1-0.4,0.2-0.7,0.5-1
		c0.2-0.3,0.5-0.5,0.8-0.7c0.3-0.2,0.8-0.3,1.3-0.3c0.4,0,0.7,0.1,1,0.2s0.6,0.4,0.7,0.7h0V46h0.9v5.4
		C173.2,52.4,173,53.1,172.5,53.6"/>
	<path d="M175.5,46v1.2h0c0.2-0.5,0.5-0.8,0.9-1.1c0.3-0.2,0.8-0.3,1.3-0.3v1c-0.4,0-0.7,0.1-1,0.2c-0.3,0.1-0.5,0.3-0.7,0.5
		c-0.2,0.2-0.3,0.5-0.4,0.7c-0.1,0.3-0.1,0.6-0.1,1v2.6h-1V46H175.5z"/>
	<path d="M181.5,49.1c-0.2,0-0.4,0.1-0.6,0.1c-0.2,0-0.4,0.1-0.7,0.1s-0.4,0.1-0.6,0.2c-0.2,0.1-0.3,0.2-0.4,0.3
		c-0.1,0.1-0.2,0.3-0.2,0.6c0,0.2,0,0.3,0.1,0.4c0.1,0.1,0.1,0.2,0.2,0.3c0.1,0.1,0.2,0.1,0.4,0.1c0.1,0,0.3,0,0.4,0
		c0.3,0,0.6,0,0.8-0.1c0.2-0.1,0.4-0.2,0.6-0.3s0.2-0.3,0.3-0.4c0.1-0.2,0.1-0.3,0.1-0.4v-1C181.9,49,181.7,49,181.5,49.1 M182.9,52
		c-0.2,0-0.4-0.1-0.6-0.2c-0.1-0.1-0.2-0.4-0.2-0.7c-0.3,0.3-0.6,0.5-0.9,0.7c-0.4,0.1-0.7,0.2-1.1,0.2c-0.3,0-0.5,0-0.8-0.1
		c-0.2-0.1-0.4-0.2-0.6-0.3c-0.2-0.1-0.3-0.3-0.4-0.5c-0.1-0.2-0.2-0.5-0.2-0.8c0-0.3,0.1-0.6,0.2-0.8c0.1-0.2,0.3-0.4,0.4-0.5
		c0.2-0.1,0.4-0.2,0.6-0.3c0.2-0.1,0.5-0.1,0.7-0.2c0.3-0.1,0.5-0.1,0.8-0.1c0.2,0,0.5-0.1,0.6-0.1c0.2,0,0.3-0.1,0.4-0.2
		c0.1-0.1,0.2-0.2,0.2-0.4c0-0.2,0-0.4-0.1-0.5c-0.1-0.1-0.2-0.2-0.3-0.3c-0.1-0.1-0.3-0.1-0.4-0.1c-0.2,0-0.3,0-0.5,0
		c-0.4,0-0.8,0.1-1,0.2c-0.3,0.2-0.4,0.4-0.4,0.9h-1c0-0.4,0.1-0.7,0.2-0.9c0.1-0.2,0.3-0.5,0.5-0.6c0.2-0.2,0.5-0.3,0.8-0.3
		c0.3-0.1,0.6-0.1,0.9-0.1c0.3,0,0.5,0,0.8,0.1c0.3,0,0.5,0.1,0.7,0.2c0.2,0.1,0.4,0.3,0.5,0.5c0.1,0.2,0.2,0.5,0.2,0.8v3
		c0,0.2,0,0.4,0,0.5c0,0.1,0.1,0.2,0.3,0.2c0.1,0,0.2,0,0.3-0.1v0.8C183.4,52,183.2,52,182.9,52"/>
	<path d="M185.4,46v0.9h0c0.4-0.7,1.1-1,1.9-1c0.4,0,0.7,0.1,1,0.2c0.3,0.2,0.5,0.4,0.6,0.8c0.2-0.3,0.5-0.6,0.8-0.7
		c0.3-0.2,0.7-0.3,1.1-0.3c0.3,0,0.6,0,0.8,0.1c0.2,0.1,0.4,0.2,0.6,0.3c0.2,0.1,0.3,0.3,0.4,0.5s0.1,0.5,0.1,0.8v4.3h-1v-3.9
		c0-0.2,0-0.4,0-0.5c0-0.2-0.1-0.3-0.2-0.4c-0.1-0.1-0.2-0.2-0.3-0.3c-0.1-0.1-0.3-0.1-0.6-0.1c-0.5,0-0.9,0.1-1.1,0.4
		c-0.3,0.3-0.4,0.6-0.4,1.1v3.7h-1v-3.9c0-0.2,0-0.4-0.1-0.5c0-0.2-0.1-0.3-0.2-0.4c-0.1-0.1-0.2-0.2-0.3-0.3
		c-0.1-0.1-0.3-0.1-0.5-0.1c-0.3,0-0.5,0.1-0.7,0.2c-0.2,0.1-0.4,0.2-0.5,0.4c-0.1,0.2-0.2,0.3-0.3,0.5c-0.1,0.2-0.1,0.3-0.1,0.4
		v3.7h-1V46H185.4z"/>
</g>
<path d="M115.5,50.6c0.1,0.1,0.2,0.3,0.4,0.4c0.1,0.1,0.3,0.1,0.5,0.2s0.4,0.1,0.6,0.1c0.2,0,0.3,0,0.5,0c0.2,0,0.3-0.1,0.5-0.1
	c0.1-0.1,0.3-0.1,0.3-0.3s0.1-0.3,0.1-0.4c0-0.2-0.1-0.4-0.3-0.6c-0.2-0.1-0.4-0.2-0.7-0.3c-0.3-0.1-0.6-0.2-0.9-0.2
	c-0.3-0.1-0.6-0.2-0.9-0.3c-0.3-0.1-0.5-0.3-0.7-0.5c-0.2-0.2-0.3-0.5-0.3-0.9c0-0.3,0.1-0.5,0.2-0.8c0.1-0.2,0.3-0.4,0.5-0.5
	c0.2-0.1,0.4-0.2,0.7-0.3c0.3-0.1,0.5-0.1,0.8-0.1c0.3,0,0.6,0,0.9,0.1c0.3,0.1,0.5,0.2,0.7,0.3c0.2,0.1,0.4,0.3,0.5,0.6
	c0.1,0.2,0.2,0.5,0.2,0.9h-1c0-0.2-0.1-0.3-0.1-0.5c-0.1-0.1-0.2-0.2-0.3-0.3c-0.1-0.1-0.3-0.1-0.4-0.2c-0.2,0-0.3-0.1-0.5-0.1
	c-0.1,0-0.3,0-0.4,0c-0.1,0-0.3,0.1-0.4,0.1c-0.1,0.1-0.2,0.1-0.3,0.2c-0.1,0.1-0.1,0.2-0.1,0.4c0,0.2,0.1,0.3,0.2,0.4
	c0.1,0.1,0.3,0.2,0.4,0.3c0.2,0.1,0.4,0.1,0.6,0.2c0.2,0,0.5,0.1,0.7,0.2c0.2,0.1,0.5,0.1,0.7,0.2c0.2,0.1,0.4,0.2,0.6,0.3
	c0.2,0.1,0.3,0.3,0.4,0.5c0.1,0.2,0.2,0.4,0.2,0.7c0,0.4-0.1,0.7-0.2,0.9c-0.1,0.2-0.3,0.4-0.6,0.6c-0.2,0.1-0.5,0.2-0.8,0.3
	c-0.3,0.1-0.6,0.1-0.9,0.1c-0.3,0-0.6,0-0.9-0.1c-0.3-0.1-0.6-0.2-0.8-0.3c-0.2-0.2-0.4-0.4-0.5-0.6c-0.1-0.3-0.2-0.6-0.2-0.9h1
	C115.4,50.3,115.4,50.5,115.5,50.6"/>
<path d="M99.6,46v1.2h0c0.2-0.5,0.5-0.8,0.9-1.1c0.3-0.2,0.8-0.3,1.3-0.3v1c-0.4,0-0.7,0.1-1,0.2c-0.3,0.1-0.5,0.3-0.7,0.5
	c-0.2,0.2-0.3,0.5-0.4,0.7c-0.1,0.3-0.1,0.6-0.1,1v2.6h-1V46H99.6z"/>
<path d="M105.6,49.1c-0.2,0-0.4,0.1-0.6,0.1c-0.2,0-0.4,0.1-0.7,0.1s-0.4,0.1-0.6,0.2c-0.2,0.1-0.3,0.2-0.4,0.3
	c-0.1,0.1-0.2,0.3-0.2,0.6c0,0.2,0,0.3,0.1,0.4c0.1,0.1,0.1,0.2,0.2,0.3c0.1,0.1,0.2,0.1,0.4,0.1c0.1,0,0.3,0,0.4,0
	c0.3,0,0.6,0,0.8-0.1c0.2-0.1,0.4-0.2,0.6-0.3s0.2-0.3,0.3-0.4c0.1-0.2,0.1-0.3,0.1-0.4v-1C106,49,105.8,49,105.6,49.1 M107,52
	c-0.2,0-0.4-0.1-0.6-0.2c-0.1-0.1-0.2-0.4-0.2-0.7c-0.3,0.3-0.6,0.5-0.9,0.7c-0.4,0.1-0.7,0.2-1.1,0.2c-0.3,0-0.5,0-0.8-0.1
	c-0.2-0.1-0.4-0.2-0.6-0.3c-0.2-0.1-0.3-0.3-0.4-0.5c-0.1-0.2-0.2-0.5-0.2-0.8c0-0.3,0.1-0.6,0.2-0.8c0.1-0.2,0.3-0.4,0.4-0.5
	c0.2-0.1,0.4-0.2,0.6-0.3c0.2-0.1,0.5-0.1,0.7-0.2c0.3-0.1,0.5-0.1,0.8-0.1c0.2,0,0.5-0.1,0.6-0.1c0.2,0,0.3-0.1,0.4-0.2
	c0.1-0.1,0.2-0.2,0.2-0.4c0-0.2,0-0.4-0.1-0.5c-0.1-0.1-0.2-0.2-0.3-0.3c-0.1-0.1-0.3-0.1-0.4-0.1c-0.2,0-0.3,0-0.5,0
	c-0.4,0-0.8,0.1-1,0.2c-0.3,0.2-0.4,0.4-0.4,0.9h-1c0-0.4,0.1-0.7,0.2-0.9c0.1-0.2,0.3-0.5,0.5-0.6c0.2-0.2,0.5-0.3,0.8-0.3
	c0.3-0.1,0.6-0.1,0.9-0.1c0.3,0,0.5,0,0.8,0.1c0.3,0,0.5,0.1,0.7,0.2c0.2,0.1,0.4,0.3,0.5,0.5c0.1,0.2,0.2,0.5,0.2,0.8v3
	c0,0.2,0,0.4,0,0.5c0,0.1,0.1,0.2,0.3,0.2c0.1,0,0.2,0,0.3-0.1v0.8C107.5,52,107.3,52,107,52"/>
<path d="M109.5,46V47h0c0.4-0.7,1-1.1,1.9-1.1c0.4,0,0.7,0.1,1,0.2c0.3,0.1,0.5,0.3,0.6,0.4c0.2,0.2,0.3,0.4,0.3,0.7
	c0.1,0.3,0.1,0.6,0.1,0.9v3.9h-1v-4c0-0.4-0.1-0.7-0.3-0.9c-0.2-0.2-0.5-0.3-0.9-0.3c-0.3,0-0.6,0-0.8,0.1c-0.2,0.1-0.4,0.2-0.5,0.4
	c-0.1,0.2-0.3,0.4-0.3,0.6c-0.1,0.2-0.1,0.5-0.1,0.7v3.3h-1V46H109.5z"/>
<path d="M131.4,46v0.9h-1.2v3.7c0,0.1,0,0.2,0,0.3c0,0.1,0.1,0.1,0.1,0.2c0.1,0,0.1,0.1,0.2,0.1c0.1,0,0.2,0,0.4,0h0.4v0.9h-0.7
	c-0.2,0-0.5,0-0.6-0.1c-0.2,0-0.3-0.1-0.4-0.2c-0.1-0.1-0.2-0.2-0.2-0.4c-0.1-0.2-0.1-0.4-0.1-0.7v-3.7h-1V46h1v-1.8h1V46H131.4z"/>
<path d="M126,49.1c-0.2,0-0.4,0.1-0.6,0.1c-0.2,0-0.4,0.1-0.7,0.1s-0.4,0.1-0.6,0.2c-0.2,0.1-0.3,0.2-0.4,0.3
	c-0.1,0.1-0.2,0.3-0.2,0.6c0,0.2,0,0.3,0.1,0.4c0.1,0.1,0.1,0.2,0.2,0.3c0.1,0.1,0.2,0.1,0.4,0.1c0.1,0,0.3,0,0.4,0
	c0.3,0,0.6,0,0.8-0.1c0.2-0.1,0.4-0.2,0.6-0.3s0.2-0.3,0.3-0.4c0.1-0.2,0.1-0.3,0.1-0.4v-1C126.4,49,126.2,49,126,49.1 M127.4,52
	c-0.2,0-0.4-0.1-0.6-0.2c-0.1-0.1-0.2-0.4-0.2-0.7c-0.3,0.3-0.6,0.5-0.9,0.7c-0.4,0.1-0.7,0.2-1.1,0.2c-0.3,0-0.5,0-0.8-0.1
	c-0.2-0.1-0.4-0.2-0.6-0.3c-0.2-0.1-0.3-0.3-0.4-0.5c-0.1-0.2-0.2-0.5-0.2-0.8c0-0.3,0.1-0.6,0.2-0.8c0.1-0.2,0.3-0.4,0.4-0.5
	c0.2-0.1,0.4-0.2,0.6-0.3c0.2-0.1,0.5-0.1,0.7-0.2c0.3-0.1,0.5-0.1,0.8-0.1c0.2,0,0.5-0.1,0.6-0.1c0.2,0,0.3-0.1,0.4-0.2
	c0.1-0.1,0.2-0.2,0.2-0.4c0-0.2,0-0.4-0.1-0.5c-0.1-0.1-0.2-0.2-0.3-0.3c-0.1-0.1-0.3-0.1-0.4-0.1c-0.2,0-0.3,0-0.5,0
	c-0.4,0-0.8,0.1-1,0.2c-0.3,0.2-0.4,0.4-0.4,0.9h-1c0-0.4,0.1-0.7,0.2-0.9c0.1-0.2,0.3-0.5,0.5-0.6c0.2-0.2,0.5-0.3,0.8-0.3
	c0.3-0.1,0.6-0.1,0.9-0.1c0.3,0,0.5,0,0.8,0.1c0.3,0,0.5,0.1,0.7,0.2c0.2,0.1,0.4,0.3,0.5,0.5c0.1,0.2,0.2,0.5,0.2,0.8v3
	c0,0.2,0,0.4,0,0.5c0,0.1,0.1,0.2,0.3,0.2c0.1,0,0.2,0,0.3-0.1v0.8C127.9,52,127.7,52,127.4,52"/>
<path d="M101.7,32.3v0.9h0c0.4-0.7,1-1.1,1.9-1.1c0.4,0,0.7,0.1,1,0.2c0.3,0.1,0.5,0.3,0.6,0.4c0.2,0.2,0.3,0.4,0.3,0.7
	c0.1,0.3,0.1,0.6,0.1,0.9v3.9h-1v-4c0-0.4-0.1-0.7-0.3-0.9c-0.2-0.2-0.5-0.3-0.9-0.3c-0.3,0-0.6,0-0.8,0.1c-0.2,0.1-0.4,0.2-0.5,0.4
	c-0.1,0.2-0.3,0.4-0.3,0.6c-0.1,0.2-0.1,0.5-0.1,0.7v3.3h-1v-5.9H101.7z"/>
<path d="M107.9,36.1c0.1,0.3,0.2,0.5,0.4,0.7c0.2,0.2,0.4,0.3,0.6,0.4c0.2,0.1,0.5,0.1,0.7,0.1c0.3,0,0.5-0.1,0.7-0.1
	c0.2-0.1,0.4-0.2,0.6-0.4c0.2-0.2,0.3-0.4,0.4-0.7c0.1-0.3,0.1-0.6,0.1-1c0-0.4,0-0.7-0.1-0.9c-0.1-0.3-0.2-0.5-0.4-0.7
	c-0.2-0.2-0.4-0.3-0.6-0.4c-0.2-0.1-0.5-0.1-0.7-0.1c-0.2,0-0.5,0-0.7,0.1c-0.2,0.1-0.4,0.2-0.6,0.4c-0.2,0.2-0.3,0.4-0.4,0.7
	c-0.1,0.3-0.1,0.6-0.1,0.9C107.8,35.6,107.8,35.9,107.9,36.1 M106.9,34c0.1-0.4,0.3-0.7,0.5-1c0.2-0.3,0.5-0.5,0.9-0.7
	c0.4-0.2,0.8-0.2,1.2-0.2c0.5,0,0.9,0.1,1.2,0.2c0.4,0.2,0.7,0.4,0.9,0.7c0.2,0.3,0.4,0.6,0.5,1c0.1,0.4,0.2,0.8,0.2,1.2
	c0,0.4-0.1,0.8-0.2,1.2c-0.1,0.4-0.3,0.7-0.5,1c-0.2,0.3-0.5,0.5-0.9,0.6c-0.4,0.2-0.8,0.2-1.2,0.2c-0.5,0-0.9-0.1-1.2-0.2
	c-0.4-0.2-0.7-0.4-0.9-0.6s-0.4-0.6-0.5-1c-0.1-0.4-0.2-0.8-0.2-1.2C106.7,34.8,106.8,34.4,106.9,34"/>
<path d="M147.5,34c-0.1-0.2-0.2-0.4-0.4-0.5c-0.1-0.1-0.3-0.3-0.5-0.4c-0.2-0.1-0.4-0.1-0.7-0.1c-0.2,0-0.5,0-0.7,0.1
	s-0.4,0.2-0.5,0.4c-0.1,0.2-0.3,0.3-0.3,0.5c-0.1,0.2-0.1,0.4-0.1,0.6h3.4C147.6,34.4,147.6,34.2,147.5,34 M147.7,37.8
	c-0.4,0.3-1,0.5-1.7,0.5c-0.5,0-0.9-0.1-1.2-0.2c-0.3-0.2-0.6-0.4-0.9-0.6s-0.4-0.6-0.5-1c-0.1-0.4-0.2-0.8-0.2-1.2
	c0-0.4,0.1-0.9,0.2-1.2c0.1-0.4,0.3-0.7,0.6-1c0.2-0.3,0.5-0.5,0.9-0.6c0.3-0.2,0.7-0.2,1.1-0.2c0.5,0,1,0.1,1.3,0.3
	s0.6,0.5,0.8,0.8c0.2,0.3,0.4,0.7,0.4,1.1c0.1,0.4,0.1,0.8,0.1,1.1h-4.4c0,0.3,0,0.5,0.1,0.7c0.1,0.2,0.2,0.4,0.3,0.6
	c0.2,0.2,0.3,0.3,0.6,0.4c0.2,0.1,0.5,0.2,0.8,0.2c0.4,0,0.7-0.1,1-0.3c0.3-0.2,0.4-0.5,0.5-0.9h1C148.4,36.9,148.2,37.4,147.7,37.8
	"/>
<path d="M128.3,34c-0.1-0.2-0.2-0.4-0.4-0.5c-0.1-0.1-0.3-0.3-0.5-0.4c-0.2-0.1-0.4-0.1-0.7-0.1c-0.2,0-0.5,0-0.7,0.1
	s-0.4,0.2-0.5,0.4c-0.1,0.2-0.3,0.3-0.3,0.5c-0.1,0.2-0.1,0.4-0.1,0.6h3.4C128.4,34.4,128.4,34.2,128.3,34 M128.5,37.8
	c-0.4,0.3-1,0.5-1.7,0.5c-0.5,0-0.9-0.1-1.2-0.2c-0.3-0.2-0.6-0.4-0.9-0.6s-0.4-0.6-0.5-1c-0.1-0.4-0.2-0.8-0.2-1.2
	c0-0.4,0.1-0.9,0.2-1.2c0.1-0.4,0.3-0.7,0.6-1c0.2-0.3,0.5-0.5,0.9-0.6c0.3-0.2,0.7-0.2,1.1-0.2c0.5,0,1,0.1,1.3,0.3
	s0.6,0.5,0.8,0.8c0.2,0.3,0.4,0.7,0.4,1.1c0.1,0.4,0.1,0.8,0.1,1.1h-4.4c0,0.3,0,0.5,0.1,0.7c0.1,0.2,0.2,0.4,0.3,0.6
	c0.2,0.2,0.3,0.3,0.6,0.4c0.2,0.1,0.5,0.2,0.8,0.2c0.4,0,0.7-0.1,1-0.3c0.3-0.2,0.4-0.5,0.5-0.9h1C129.2,36.9,129,37.4,128.5,37.8"
	/>
<path d="M131.3,36c0.1,0.3,0.2,0.5,0.3,0.7c0.1,0.2,0.3,0.4,0.6,0.5c0.2,0.1,0.5,0.2,0.8,0.2c0.3,0,0.6-0.1,0.8-0.2
	c0.2-0.1,0.4-0.3,0.6-0.5c0.1-0.2,0.2-0.4,0.3-0.7c0.1-0.3,0.1-0.5,0.1-0.8c0-0.3,0-0.6-0.1-0.8c-0.1-0.3-0.2-0.5-0.3-0.7
	c-0.1-0.2-0.3-0.4-0.6-0.5S133.3,33,133,33c-0.3,0-0.6,0.1-0.8,0.2c-0.2,0.1-0.4,0.3-0.5,0.5c-0.1,0.2-0.2,0.5-0.3,0.7
	c-0.1,0.3-0.1,0.6-0.1,0.8C131.2,35.5,131.3,35.8,131.3,36 M134.8,38.1v-0.8h0c-0.2,0.3-0.4,0.6-0.8,0.7c-0.3,0.1-0.7,0.2-1.1,0.2
	c-0.5,0-0.9-0.1-1.2-0.2c-0.3-0.2-0.6-0.4-0.8-0.7c-0.2-0.3-0.4-0.6-0.5-1c-0.1-0.4-0.2-0.8-0.2-1.2c0-0.4,0.1-0.8,0.2-1.2
	c0.1-0.4,0.3-0.7,0.5-1c0.2-0.3,0.5-0.5,0.8-0.7c0.3-0.2,0.7-0.2,1.2-0.2c0.2,0,0.3,0,0.5,0c0.2,0,0.3,0.1,0.5,0.2
	c0.2,0.1,0.3,0.2,0.5,0.3c0.2,0.1,0.3,0.3,0.4,0.4h0v-3h1v8.1H134.8z"/>
<path d="M140.4,37.1c0.2-0.1,0.4-0.3,0.5-0.5c0.1-0.2,0.2-0.5,0.3-0.7c0.1-0.3,0.1-0.5,0.1-0.8c0-0.3,0-0.5-0.1-0.8
	c-0.1-0.3-0.2-0.5-0.3-0.7c-0.1-0.2-0.3-0.4-0.5-0.5c-0.2-0.1-0.5-0.2-0.8-0.2c-0.3,0-0.6,0.1-0.8,0.2c-0.2,0.1-0.4,0.3-0.5,0.5
	c-0.1,0.2-0.2,0.4-0.3,0.7c-0.1,0.3-0.1,0.5-0.1,0.8c0,0.3,0,0.5,0.1,0.8c0.1,0.3,0.1,0.5,0.3,0.7c0.1,0.2,0.3,0.4,0.5,0.5
	c0.2,0.1,0.5,0.2,0.8,0.2C139.9,37.3,140.1,37.3,140.4,37.1 M141.6,39.8c-0.4,0.5-1.1,0.7-2.1,0.7c-0.3,0-0.6,0-0.8-0.1
	c-0.3-0.1-0.5-0.2-0.8-0.3s-0.4-0.3-0.6-0.5c-0.2-0.2-0.2-0.5-0.2-0.8h1c0,0.2,0.1,0.3,0.2,0.4c0.1,0.1,0.2,0.2,0.4,0.3
	c0.1,0.1,0.3,0.1,0.5,0.2c0.2,0,0.3,0.1,0.5,0.1c0.3,0,0.6-0.1,0.8-0.2s0.4-0.3,0.5-0.5s0.2-0.4,0.3-0.7c0.1-0.3,0.1-0.6,0.1-0.9
	v-0.4h0c-0.2,0.4-0.4,0.6-0.8,0.8c-0.3,0.2-0.7,0.3-1.1,0.3c-0.4,0-0.8-0.1-1.1-0.2c-0.3-0.2-0.6-0.4-0.8-0.6
	c-0.2-0.3-0.4-0.6-0.5-0.9c-0.1-0.4-0.2-0.7-0.2-1.1c0-0.3,0-0.7,0.1-1.1c0.1-0.4,0.2-0.7,0.5-1c0.2-0.3,0.5-0.5,0.8-0.7
	c0.3-0.2,0.8-0.3,1.3-0.3c0.4,0,0.7,0.1,1,0.2s0.6,0.4,0.7,0.7h0v-0.8h0.9v5.4C142.3,38.6,142,39.3,141.6,39.8"/>
</svg>
